<?xml version="1.0" standalone="no"?>
<!DOCTYPE svg PUBLIC "-//W3C//DTD SVG 20010904//EN"
 "http://www.w3.org/TR/2001/REC-SVG-20010904/DTD/svg10.dtd">
<svg version="1.0" xmlns="http://www.w3.org/2000/svg"
 width="144.000000pt" height="144.000000pt" viewBox="0 0 144.000000 144.000000"
 preserveAspectRatio="xMidYMid meet">
<metadata>
Created by potrace 1.15, written by Peter Selinger 2001-2017
</metadata>
<g transform="translate(0.000000,144.000000) scale(0.100000,-0.100000)"
fill="#000000" stroke="none">
<path d="M73 1424 c-18 -9 -42 -31 -53 -49 -19 -31 -20 -49 -20 -656 0 -601 1
-625 20 -656 39 -65 14 -63 702 -63 600 0 624 1 655 20 65 39 63 14 63 702 0
607 -1 624 -20 656 -39 63 -26 62 -702 62 -541 0 -617 -2 -645 -16z m770 -180
c26 -9 50 -21 54 -26 10 -17 -27 -39 -47 -28 -36 19 -101 28 -135 19 -45 -13
-85 -61 -85 -104 0 -47 44 -87 175 -160 131 -73 172 -107 196 -159 30 -66 20
-140 -28 -196 -28 -34 -91 -70 -123 -70 -27 0 -26 -4 12 -51 62 -78 45 -192
-39 -256 -31 -24 -47 -28 -115 -32 -58 -2 -92 1 -124 14 -47 18 -52 26 -29 45
12 10 23 9 55 -4 84 -34 165 -13 195 51 31 64 -6 111 -152 193 -173 97 -210
132 -228 217 -17 81 58 191 148 215 l42 11 -27 29 c-58 62 -63 161 -11 226 60
76 163 101 266 66z"/>
<path d="M600 867 c-46 -16 -83 -71 -77 -114 9 -53 36 -82 133 -139 73 -43
101 -54 136 -54 82 0 136 56 124 129 -7 47 -36 74 -143 137 -95 56 -115 61
-173 41z"/>
</g>
</svg>
